<svg width="29" height="29" viewBox="0 0 29 29" fill="none" xmlns="http://www.w3.org/2000/svg">
<path d="M15.3579 20.8921C15.2985 20.8374 15.2337 20.7888 15.1646 20.7471C15.1029 20.6992 15.0334 20.6624 14.9592 20.6383C14.8872 20.6015 14.8096 20.577 14.7296 20.5658C14.4981 20.5169 14.2571 20.5422 14.0408 20.6383C13.8909 20.6926 13.7547 20.7792 13.6419 20.8919C13.5292 21.0047 13.4426 21.1409 13.3883 21.2908C13.3207 21.4342 13.2876 21.5915 13.2917 21.75C13.2897 21.9071 13.3185 22.063 13.3763 22.2091C13.4463 22.3535 13.5357 22.4877 13.6421 22.6079C13.755 22.7199 13.8889 22.8085 14.0361 22.8686C14.1833 22.9288 14.341 22.9592 14.5 22.9583C14.6585 22.9624 14.8158 22.9293 14.9592 22.8616C15.1056 22.8005 15.2405 22.7146 15.3579 22.6079C15.4699 22.495 15.5585 22.3611 15.6186 22.2139C15.6788 22.0666 15.7093 21.909 15.7083 21.75C15.7064 21.5921 15.6736 21.4361 15.6117 21.2908C15.5542 21.1425 15.4679 21.007 15.3579 20.8921ZM10.3313 15.9137C10.2696 15.8659 10.2001 15.8291 10.1258 15.805C10.0555 15.7598 9.97778 15.727 9.89625 15.7083C9.74124 15.6722 9.58001 15.6722 9.425 15.7083L9.2075 15.7808L8.99 15.8896L8.80875 16.0346C8.58222 16.2722 8.45662 16.5884 8.45833 16.9166C8.45741 17.0757 8.48789 17.2333 8.54803 17.3805C8.60816 17.5278 8.69676 17.6617 8.80875 17.7746C8.9262 17.8813 9.06107 17.9671 9.2075 18.0283C9.39056 18.1035 9.58929 18.1326 9.78623 18.113C9.98316 18.0935 10.1723 18.0258 10.3369 17.916C10.5016 17.8062 10.6368 17.6577 10.7306 17.4834C10.8244 17.3092 10.874 17.1146 10.875 16.9166C10.8705 16.5967 10.7454 16.2903 10.5246 16.0587L10.3313 15.9137ZM10.5246 20.8921C10.4097 20.7821 10.2742 20.6958 10.1258 20.6383C9.9071 20.5369 9.66302 20.5032 9.425 20.5416L9.2075 20.6141C9.1305 20.6406 9.05736 20.6772 8.99 20.7229C8.9267 20.7675 8.86617 20.8159 8.80875 20.8679C8.69874 20.9828 8.61251 21.1183 8.555 21.2666C8.49107 21.4113 8.45805 21.5677 8.45805 21.7258C8.45805 21.8839 8.49107 22.0403 8.555 22.185C8.61619 22.3314 8.70202 22.4663 8.80875 22.5837C8.91965 22.7001 9.05265 22.7932 9.19996 22.8575C9.34727 22.9218 9.50594 22.9561 9.66667 22.9583C9.82517 22.9624 9.98243 22.9293 10.1258 22.8616C10.2723 22.8005 10.4071 22.7146 10.5246 22.6079C10.6313 22.4904 10.7171 22.3556 10.7783 22.2091C10.8423 22.0645 10.8753 21.9081 10.8753 21.75C10.8753 21.5918 10.8423 21.4355 10.7783 21.2908C10.7208 21.1425 10.6346 21.007 10.5246 20.8921ZM14.0408 15.805C13.8925 15.8625 13.757 15.9487 13.6421 16.0587C13.4213 16.2903 13.2961 16.5967 13.2917 16.9166C13.2927 17.1146 13.3422 17.3092 13.4361 17.4834C13.5299 17.6577 13.6651 17.8062 13.8297 17.916C13.9944 18.0258 14.1835 18.0935 14.3804 18.113C14.5774 18.1326 14.7761 18.1035 14.9592 18.0283C15.1056 17.9671 15.2405 17.8813 15.3579 17.7746C15.4699 17.6617 15.5585 17.5278 15.6186 17.3805C15.6788 17.2333 15.7093 17.0757 15.7083 16.9166C15.7039 16.5967 15.5787 16.2903 15.3579 16.0587C15.188 15.8911 14.9722 15.7775 14.7378 15.7323C14.5034 15.6872 14.2609 15.7124 14.0408 15.805ZM20.1912 20.8921C20.0738 20.7853 19.9389 20.6995 19.7925 20.6383C19.5724 20.5458 19.3299 20.5205 19.0955 20.5657C18.8611 20.6108 18.6453 20.7244 18.4754 20.8921C18.3654 21.007 18.2792 21.1425 18.2217 21.2908C18.1577 21.4355 18.1247 21.5918 18.1247 21.75C18.1247 21.9081 18.1577 22.0645 18.2217 22.2091C18.2829 22.3556 18.3687 22.4904 18.4754 22.6079C18.5883 22.7199 18.7222 22.8085 18.8694 22.8686C19.0167 22.9288 19.1743 22.9592 19.3333 22.9583C19.4918 22.9624 19.6491 22.9293 19.7925 22.8616C19.9389 22.8005 20.0738 22.7146 20.1912 22.6079C20.3589 22.438 20.4725 22.2222 20.5177 21.9878C20.5628 21.7534 20.5375 21.5109 20.445 21.2908C20.3875 21.1425 20.3013 21.007 20.1912 20.8921ZM19.3333 6.04165H9.66667C9.3462 6.04165 9.03885 6.16895 8.81225 6.39556C8.58564 6.62217 8.45833 6.92951 8.45833 7.24998V12.0833C8.45833 12.4038 8.58564 12.7111 8.81225 12.9377C9.03885 13.1643 9.3462 13.2916 9.66667 13.2916H19.3333C19.6538 13.2916 19.9611 13.1643 20.1878 12.9377C20.4144 12.7111 20.5417 12.4038 20.5417 12.0833V7.24998C20.5417 6.92951 20.4144 6.62217 20.1878 6.39556C19.9611 6.16895 19.6538 6.04165 19.3333 6.04165ZM18.125 10.875H10.875V8.45831H18.125V10.875ZM21.75 1.20831H7.25C6.28859 1.20831 5.36656 1.59023 4.68674 2.27005C4.00692 2.94987 3.625 3.8719 3.625 4.83331V24.1666C3.625 25.1281 4.00692 26.0501 4.68674 26.7299C5.36656 27.4097 6.28859 27.7916 7.25 27.7916H21.75C22.7114 27.7916 23.6334 27.4097 24.3133 26.7299C24.9931 26.0501 25.375 25.1281 25.375 24.1666V4.83331C25.375 3.8719 24.9931 2.94987 24.3133 2.27005C23.6334 1.59023 22.7114 1.20831 21.75 1.20831ZM22.9583 24.1666C22.9583 24.4871 22.831 24.7945 22.6044 25.0211C22.3778 25.2477 22.0705 25.375 21.75 25.375H7.25C6.92953 25.375 6.62219 25.2477 6.39558 25.0211C6.16897 24.7945 6.04167 24.4871 6.04167 24.1666V4.83331C6.04167 4.51284 6.16897 4.2055 6.39558 3.97889C6.62219 3.75229 6.92953 3.62498 7.25 3.62498H21.75C22.0705 3.62498 22.3778 3.75229 22.6044 3.97889C22.831 4.2055 22.9583 4.51284 22.9583 4.83331V24.1666ZM19.9979 15.9137C19.9362 15.8659 19.8667 15.8291 19.7925 15.805C19.7205 15.7682 19.643 15.7437 19.5629 15.7325C19.4079 15.6964 19.2467 15.6964 19.0917 15.7325L18.8742 15.805L18.6567 15.9137L18.4754 16.0587C18.2546 16.2903 18.1295 16.5967 18.125 16.9166C18.126 17.1146 18.1756 17.3092 18.2694 17.4834C18.3632 17.6577 18.4984 17.8062 18.6631 17.916C18.8277 18.0258 19.0168 18.0935 19.2138 18.113C19.4107 18.1326 19.6094 18.1035 19.7925 18.0283C19.9389 17.9671 20.0738 17.8813 20.1912 17.7746C20.3032 17.6617 20.3918 17.5278 20.452 17.3805C20.5121 17.2333 20.5426 17.0757 20.5417 16.9166C20.5372 16.5967 20.4121 16.2903 20.1912 16.0587L19.9979 15.9137Z" fill="white"/>
</svg>
