<svg width="45" height="45" viewBox="0 0 45 45" fill="none" xmlns="http://www.w3.org/2000/svg">
<path d="M22.5 45C34.9264 45 45 34.9264 45 22.5C45 10.0736 34.9264 0 22.5 0C10.0736 0 0 10.0736 0 22.5C0 34.9264 10.0736 45 22.5 45Z" fill="white"/>
<path d="M31.9152 16.2477C28.8518 13.9357 25.917 14.0004 25.917 14.0004L25.617 14.3461C29.2589 15.4482 30.9513 17.0687 30.9513 17.0687C25.741 14.1751 19.104 14.1958 13.6845 17.0687C13.6845 17.0687 15.4411 15.3616 19.2972 14.2595L19.083 14.0002C19.083 14.0002 16.1695 13.9354 13.0848 16.2474C13.0848 16.2474 10 21.8441 10 28.7372C10 28.7372 11.7995 31.8487 16.534 32C16.534 32 17.3267 31.0492 17.9693 30.2282C15.2485 29.4071 14.2203 27.7001 14.2203 27.7001C15.9295 28.7788 17.658 29.4541 19.8117 29.8825C23.3159 30.6101 27.6747 29.8621 30.93 27.7001C30.93 27.7001 29.8589 29.4504 27.0525 30.2499C27.6952 31.0494 28.4665 31.9785 28.4665 31.9785C33.2005 31.8275 35 28.7159 35 28.7374C35 21.8443 31.9152 16.2477 31.9152 16.2477ZM18.5046 26.728C17.3048 26.728 16.3195 25.6691 16.3195 24.3509C16.4072 21.1943 20.6241 21.2041 20.6899 24.3509C20.6896 25.6691 19.7256 26.728 18.5046 26.728ZM26.3239 26.728C25.1241 26.728 24.1388 25.6691 24.1388 24.3509C24.2352 21.2004 28.3994 21.199 28.5091 24.3509C28.5089 25.6691 27.5449 26.728 26.3239 26.728Z" fill="#00A9BE"/>
</svg>
