<svg width="26" height="24" viewBox="0 0 26 24" fill="none" xmlns="http://www.w3.org/2000/svg">
<path d="M24.299 22.2297H1.70103C1.23766 22.2297 0.845581 22.6218 0.845581 23.0852C0.845581 23.5486 1.23766 23.9406 1.70103 23.9406H24.299C24.7624 23.9406 25.1545 23.5486 25.1545 23.0852C25.1545 22.6218 24.7624 22.2297 24.299 22.2297ZM0.881225 14.7446L0.845581 18.7723C0.845581 18.9862 0.916868 19.2357 1.09509 19.3783C1.2733 19.5208 1.48717 19.6278 1.70103 19.6278L5.72875 19.5921C5.94261 19.5921 6.15647 19.4852 6.33469 19.3426L20.1644 5.51291C20.4852 5.19212 20.4852 4.62182 20.1644 4.30103L16.1723 0.308953C15.8515 -0.0118387 15.2812 -0.0118387 14.9604 0.308953L12.1802 3.08915L1.13073 14.1387C0.952512 14.3169 0.881225 14.5307 0.881225 14.7446ZM18.3466 4.90697L16.7783 6.47529L13.9981 3.69509L15.5664 2.12677L18.3466 4.90697ZM2.59212 15.101L12.7862 4.90697L15.5664 7.68717L5.37231 17.8812H2.59212V15.101Z" fill="#00A9BE"/>
</svg>
