<svg width="45" height="45" viewBox="0 0 45 45" fill="none" xmlns="http://www.w3.org/2000/svg">
<path d="M22.5 0C10.073 0 0 10.0744 0 22.5C0 34.9256 10.0744 45 22.5 45C34.927 45 45 34.9256 45 22.5C45 10.0744 34.927 0 22.5 0ZM34.7738 24.9694C34.8075 25.2239 34.8244 25.4756 34.8244 25.7189C34.8244 30.3483 29.2852 34.1156 22.4761 34.1156C15.667 34.1156 10.1278 30.3483 10.1278 25.7189C10.1278 25.4658 10.1461 25.2042 10.1827 24.9384C9.75238 24.623 9.4025 24.2105 9.16135 23.7346C8.92021 23.2587 8.79459 22.7326 8.79469 22.1991C8.79543 21.2937 9.1554 20.4257 9.79556 19.7856C10.4357 19.1454 11.3037 18.7854 12.2091 18.7847C12.9431 18.7847 13.6575 19.0238 14.2453 19.4611C16.3617 18.1744 19.0603 17.4234 21.8981 17.3334L24.0736 11.153L29.2866 12.3989C29.5278 11.9406 29.89 11.557 30.3337 11.2898C30.7774 11.0225 31.2858 10.8819 31.8037 10.883C32.5594 10.8841 33.2838 11.1848 33.8181 11.7191C34.3524 12.2534 34.6531 12.9778 34.6542 13.7334C34.6531 14.489 34.3524 15.2132 33.818 15.7473C33.2837 16.2814 32.5593 16.5818 31.8037 16.5825C31.0954 16.5813 30.4128 16.3168 29.8887 15.8404C29.3645 15.3641 29.0361 14.7098 28.9673 14.0048L25.1283 13.0866L23.625 17.3587C26.2603 17.5247 28.7606 18.2686 30.735 19.4766C31.3256 19.0294 32.047 18.7847 32.7909 18.7847C33.6963 18.7854 34.5643 19.1454 35.2044 19.7856C35.8446 20.4257 36.2046 21.2937 36.2053 22.1991C36.2058 22.7417 36.076 23.2765 35.8269 23.7586C35.5778 24.2406 35.2166 24.6559 34.7738 24.9694Z" fill="white"/>
</svg>
