<svg width="32" height="32" viewBox="0 0 32 32" fill="none" xmlns="http://www.w3.org/2000/svg">
<path d="M22.07 8.57998C22.2661 8.48002 22.4549 8.3664 22.635 8.23998C24.095 7.21498 24.545 5.32998 23.635 4.03998C22.725 2.74998 20.805 2.53998 19.345 3.57498C17.885 4.60998 17.135 6.43998 16.32 8.57498L22.07 8.57998ZM4.35001 15.23H27.655V27.08C27.655 27.6104 27.4443 28.1191 27.0692 28.4942C26.6941 28.8693 26.1854 29.08 25.655 29.08H6.35001C5.81957 29.08 5.31087 28.8693 4.93579 28.4942C4.56072 28.1191 4.35001 27.6104 4.35001 27.08V15.23Z" stroke="white" stroke-width="2" stroke-linecap="round" stroke-linejoin="round"/>
<path d="M18.925 15.23H13.075V29.08H18.925V15.23Z" stroke="white" stroke-width="2" stroke-linecap="round" stroke-linejoin="round"/>
<path d="M9.92999 8.57998C9.73492 8.48111 9.54771 8.36744 9.36999 8.23998C7.90999 7.21498 7.45499 5.32998 8.36999 4.03998C9.28499 2.74998 11.2 2.53998 12.665 3.57498C14.13 4.60998 14.87 6.43998 15.69 8.57498L9.92999 8.57998Z" stroke="white" stroke-width="2" stroke-linecap="round" stroke-linejoin="round"/>
<path d="M27.25 8.58002H4.75C3.92157 8.58002 3.25 9.25159 3.25 10.08V13.73C3.25 14.5584 3.92157 15.23 4.75 15.23H27.25C28.0784 15.23 28.75 14.5584 28.75 13.73V10.08C28.75 9.25159 28.0784 8.58002 27.25 8.58002Z" stroke="white" stroke-width="2" stroke-linecap="round" stroke-linejoin="round"/>
<path d="M19.46 8.58002H12.545V15.23H19.46V8.58002Z" stroke="white" stroke-width="2" stroke-linecap="round" stroke-linejoin="round"/>
</svg>
