<svg width="46" height="45" viewBox="0 0 46 45" fill="none" xmlns="http://www.w3.org/2000/svg">
<path d="M23.0513 0C10.6256 0 0.55127 10.0744 0.55127 22.5C0.55127 34.9256 10.6256 45 23.0513 45C35.4769 45 45.5513 34.9256 45.5513 22.5C45.5513 10.0744 35.4769 0 23.0513 0ZM34.1025 15.4144L30.4088 32.8144C30.1369 34.0481 29.4019 34.3481 28.3763 33.7669L22.7513 29.6231L20.04 32.2369C19.7775 32.5744 19.3706 32.79 18.915 32.79C18.9113 32.79 18.9094 32.79 18.9056 32.79L19.305 27.0637L29.73 17.6475C30.18 17.2481 29.6288 17.0213 29.0306 17.4206L16.1513 25.5319L10.6013 23.7994C9.40127 23.4188 9.36752 22.5994 10.8544 22.0106L32.5406 13.6519C33.5494 13.2844 34.4269 13.8919 34.1006 15.4163L34.1025 15.4144Z" fill="white"/>
</svg>
