<svg width="45" height="45" viewBox="0 0 45 45" fill="none" xmlns="http://www.w3.org/2000/svg">
<path d="M22.5 45C34.9264 45 45 34.9264 45 22.5C45 10.0736 34.9264 0 22.5 0C10.0736 0 0 10.0736 0 22.5C0 34.9264 10.0736 45 22.5 45Z" fill="white"/>
<path d="M37 14.7211C35.9701 15.183 34.8639 15.4953 33.7009 15.6356C34.8879 14.9172 35.7972 13.7787 36.2266 12.4238C35.099 13.1007 33.865 13.5772 32.5781 13.8327C31.5309 12.7044 30.0376 12 28.3854 12C25.2142 12 22.6423 14.5985 22.6423 17.8057C22.6423 18.2601 22.6929 18.7035 22.7903 19.1291C18.0164 18.8866 13.784 16.5753 10.9511 13.0632C10.4564 13.921 10.1733 14.9183 10.1733 15.9823C10.1733 17.9963 11.1875 19.7732 12.7285 20.8141C11.8162 20.7856 10.924 20.5367 10.1264 20.0883V20.1616C10.1264 22.9748 12.106 25.3206 14.7339 25.854C14.2511 25.9877 13.7445 26.0576 13.2204 26.0576C12.8499 26.0576 12.4903 26.0221 12.1391 25.9554C12.8701 28.2611 14.9914 29.9395 17.5042 29.987C15.5384 31.5446 13.0613 32.4731 10.3709 32.4731C9.90756 32.4731 9.44959 32.4451 9 32.3903C11.5424 34.0381 14.561 35 17.8049 35C28.3697 35 34.1477 26.1534 34.1477 18.4814C34.1477 18.2296 34.1422 17.9796 34.1302 17.7305C35.256 16.9075 36.2277 15.8884 37 14.7211Z" fill="#00A9BE"/>
</svg>
